<?xml version="1.0" encoding="UTF-8"?>
<svg id="Layer_1" data-name="Layer 1" xmlns="http://www.w3.org/2000/svg" version="1.1" viewBox="0 0 181.1 134.57">
  <defs>
    <style>
      .cls-1 {
        fill: #000;
      }

      .cls-1, .cls-2 {
        stroke-width: 0px;
      }

      .cls-2 {
        fill: none;
      }
    </style>
  </defs>
  <path class="cls-1" d="M141.88,66.01v.36c0,21.81,16.17,39.98,39.22,39.98v28.21c-21.37,0-39.63-8.84-51.99-22.92l8.8,20.7h-31.74l-10.37-26.93h-54.42l-10.38,26.93H0l11.52-27.06c30.15-13.48,63.98-24.88,100.55-33.66h0c-.08-1.32-.12-2.63-.12-3.96v-.37C111.96,30.29,140.96,0,181.1,0v26.4c-23.04,0-39.22,17.8-39.22,39.62ZM107.66,61.25c-8.57,1.16-17.77,2.5-27.32,4.04l-11.75-30.5-13.43,34.87c-10.39,1.93-20.88,4.04-31.17,6.33L55.76,1.3h26.39l25.51,59.95Z"/>
  <rect class="cls-2" x="-65.05" y="-62.8" width="311.2" height="260.19"/>
</svg>